<svg width="24" height="24" viewBox="0 0 24 24" fill="none" xmlns="http://www.w3.org/2000/svg">
<rect width="24" height="24" fill="#E5E5E5"/>
<rect x="-171.5" y="-404.5" width="1919" height="1795" fill="white"/>
<mask id="mask0_0_1" style="mask-type:alpha" maskUnits="userSpaceOnUse" x="-2" y="-2" width="28" height="28">
<rect x="-2" y="-2" width="28" height="28" fill="#C4C4C4"/>
</mask>
<g mask="url(#mask0_0_1)">
<path d="M21.0418 23.6666H2.9585C1.51183 23.6666 0.333496 22.4883 0.333496 21.0416V2.95831C0.333496 1.51165 1.51183 0.333313 2.9585 0.333313H21.0418C22.4885 0.333313 23.6668 1.51165 23.6668 2.95831V21.0416C23.6668 22.4883 22.4885 23.6666 21.0418 23.6666ZM2.9585 2.08331C2.4755 2.08331 2.0835 2.47648 2.0835 2.95831V21.0416C2.0835 21.5235 2.4755 21.9166 2.9585 21.9166H21.0418C21.5248 21.9166 21.9168 21.5235 21.9168 21.0416V2.95831C21.9168 2.47648 21.5248 2.08331 21.0418 2.08331H2.9585Z" fill="black"/>
<path d="M17.5417 7.91669H5.875C5.392 7.91669 5 7.52352 5 7.04169C5 6.55985 5.392 6.16669 5.875 6.16669H17.5417C18.0247 6.16669 18.4167 6.55752 18.4167 7.04169C18.4167 7.52585 18.0247 7.91669 17.5417 7.91669ZM17.5417 12.7117H5.875C5.392 12.7117 5 12.3197 5 11.8367C5 11.3537 5.392 10.9617 5.875 10.9617H17.5417C18.0247 10.9617 18.4167 11.3537 18.4167 11.8367C18.4167 12.3197 18.0247 12.7117 17.5417 12.7117ZM11.7083 17.5067H5.875C5.392 17.5067 5 17.1159 5 16.6317C5 16.1475 5.392 15.7567 5.875 15.7567H11.7083C12.1913 15.7567 12.5833 16.1499 12.5833 16.6317C12.5833 17.1135 12.1913 17.5067 11.7083 17.5067Z" fill="black"/>
</g>
<rect x="-171.5" y="-404.5" width="1919" height="1795" stroke="black"/>
</svg>
